<svg xmlns="http://www.w3.org/2000/svg" xml:space="preserve" width="2048" height="2048" style="shape-rendering:geometricPrecision;text-rendering:geometricPrecision;image-rendering:optimizeQuality;fill-rule:evenodd;clip-rule:evenodd"><defs><style>.fil3{fill:#0d9489a4}.fil1{fill:#0d9489a4}.fil0,.fil2{fill:#393939;fill-rule:nonzero}.fil0{fill:#3f3f3f}</style></defs><g id="Layer_x0020_1"><g id="_461651072"><path id="_461645096" class="fil0" d="M530.908 1079.93h944.174c19.302 0 36.83-5.454 49.519-14.242 12.69-8.787 20.565-20.925 20.565-34.29v-16.987c0-13.366-7.875-25.504-20.565-34.289-12.69-8.787-30.217-14.242-49.519-14.242H504.626V1079.93h26.282z"/><path id="_461646488" class="fil1" d="M1147.03 1136h546.852c53.966 0 98.119-50.89 98.119-113.092v-.001c0-62.202-44.153-113.092-98.119-113.092h-550.53c-17.275 32.558-48.417 54.405-83.775 54.405h-63.005v117.374h66.682c35.358 0 66.501 21.847 83.776 54.405z"/><path id="_461666960" class="fil2" d="M670.929 1079.93h804.153c19.302 0 36.83-5.454 49.519-14.242 12.69-8.787 20.565-20.925 20.565-34.29v-8.614H504.626v57.146H670.93z"/><path id="_461665544" class="fil3" d="M1147.03 1136h546.852c53.966 0 98.119-50.89 98.119-113.092v-.001l-.001-.12H996.572v58.808h66.683c35.357 0 66.5 21.847 83.775 54.405z"/><g><path id="_461662976" d="M301.35 1252.49h7.28v-53.517h-7.28c-12.495 0-23.838-5.095-32.046-13.303l.046-.046c-8.237-8.258-13.348-19.587-13.348-32v-228.31c0-33.66 7.567-69.609 21.168-104.675 13.615-35.106 33.33-69.37 57.56-99.512 25.67-31.931 56.507-59.428 90.693-78.698 32.02-18.048 67.106-28.923 103.87-29.606 14.892-.277 32.402-.197 47.762 4.34 11.27 3.328 21.071 8.56 28.068 16.629 6.29 7.254 10.316 16.803 11.106 29.326 2.889 45.844-44.488 59.985-73.473 68.636-2.498.746-4.821 1.44-6.131 1.851-29.151 9.167-48.646 17.423-60.247 27.411-9.239 7.959-13.634 18.278-14.772 33.197-1.826 23.949 13.142 54.267 25.241 78.774 10.016 20.29 18.494 37.46 18.494 52.328v228.31c0 12.495-5.097 23.84-13.303 32.046-8.208 8.207-19.55 13.303-32.046 13.303h-4.95v53.517h4.95c12.389 0 23.697 5.092 31.953 13.303l.047.045.046.046-.001.002c8.21 8.256 13.304 19.566 13.304 31.952v92.085c0 12.493-5.097 23.837-13.303 32.044-8.208 8.207-19.552 13.304-32.046 13.304H301.35c-12.494 0-23.838-5.096-32.046-13.303-8.206-8.207-13.302-19.55-13.302-32.045v-92.085c0-12.432 5.096-23.746 13.301-31.955l.094-.092c8.207-8.206 19.52-13.302 31.953-13.302z" style="fill:#0d9489a4;fill-rule:nonzero"/><path id="_461668472" d="M308.629 1251.54v-52.566h-7.28c-1.973 0-3.918-.128-5.826-.375H465.82a45.42 45.42 0 0 1-5.827.375h-4.951v52.566H308.629z" style="fill:#0d9489a4;fill-rule:nonzero"/></g><g><path id="_461661464" d="M301.35 1252.49h7.28v-53.517h-7.28c-12.495 0-23.838-5.095-32.046-13.303l.046-.046c-8.237-8.258-13.348-19.587-13.348-32v-228.31c0-33.66 7.567-69.609 21.168-104.675 13.615-35.106 33.33-69.37 57.56-99.512 13.86-17.24 29.226-33.187 45.812-47.245v761.39H301.35c-12.494 0-23.838-5.097-32.046-13.303-8.206-8.208-13.302-19.55-13.302-32.046v-92.084c0-12.433 5.096-23.747 13.301-31.955l.093-.092c8.208-8.207 19.52-13.302 31.954-13.302z" style="fill:#0d9489a4;fill-rule:nonzero"/><path id="_461645528" d="M308.629 1251.54v-52.566h-7.28c-1.973 0-3.918-.128-5.826-.375h85.019v52.941h-71.913z" style="fill:#0d9489a4;fill-rule:nonzero"/></g><g><path id="_461664992" class="fil0" d="M530.908 1079.93h944.174c19.302 0 36.83-5.454 49.519-14.242 12.69-8.787 20.565-20.925 20.565-34.29v-16.987c0-13.366-7.875-25.504-20.565-34.289-12.69-8.787-30.217-14.242-49.519-14.242H504.626V1079.93h26.282z"/><path id="_461661128" class="fil1" d="M1147.03 1136h546.852c53.966 0 98.119-50.89 98.119-113.092v-.001c0-62.202-44.153-113.092-98.119-113.092h-550.53c-17.275 32.558-48.417 54.405-83.775 54.405h-63.005v117.374h66.682c35.358 0 66.501 21.847 83.776 54.405z"/><path id="_461655056" class="fil2" d="M670.929 1079.93h804.153c19.302 0 36.83-5.454 49.519-14.242 12.69-8.787 20.565-20.925 20.565-34.29v-8.614H504.626v57.146H670.93z"/><path id="_461649152" class="fil3" d="M1147.03 1136h546.852c53.966 0 98.119-50.89 98.119-113.092v-.001l-.001-.12H996.572v58.808h66.683c35.357 0 66.5 21.847 83.775 54.405z"/></g></g><path style="fill:none" d="M0 0h2048v2048H0z"/></g></svg>